# xmcd CD database file
# Copyright (C) 1997 Ti Kan
#
# Track frame offsets:
#  180
#  25655
#  52430
#  70205
#  86900
#  114170
#  131930
#  146845
#  161770
#  181755
#  205345
#  229270
#  248270
#  271155
#  286105
#
# Disc length: 4036 seconds
#
# Revision: 1
# Processed by: cddbd v1.4b41PL1 Copyright (c) Steve Scherf et al.
# Submitted via: CDWizzard Release:4.32
#
DISCID=da0fc20f
DTITLE=Various Artist - Disco goes to crazy
DYEAR=1900
DGENRE=
TTITLE0=Got to be you
TTITLE1=Hyperfunky
TTITLE2=I believe
TTITLE3=I don't wanna be a star
TTITLE4=Let me go
TTITLE5=Tell me
TTITLE6=Music
TTITLE7=Funky
TTITLE8=My radio
TTITLE9=Don't let me be
TTITLE10=Fame
TTITLE11=Young heart run free
TTITLE12=Flashdance...What a feeling
TTITLE13=Only way to heaven
TTITLE14=Walking on music
EXTD=
EXTT0=
EXTT1=
EXTT2=
EXTT3=
EXTT4=
EXTT5=
EXTT6=
EXTT7=
EXTT8=
EXTT9=
EXTT10=
EXTT11=
EXTT12=
EXTT13=
EXTT14=
PLAYORDER=
